{
	"asset":{
		"version":"2.0",
		"generator":"Houdini GLTF 2.0 Exporter"
	},
	"accessors":[
		{
			"bufferView":0,
			"componentType":5123,
			"count":486,
			"type":"SCALAR",
			"min":[0
			],
			"max":[99
			]
		},
		{
			"bufferView":1,
			"componentType":5126,
			"count":100,
			"type":"VEC3",
			"min":[-15000,0,-15000
			],
			"max":[15000,10046.9307,15000
			]
		},
		{
			"bufferView":2,
			"componentType":5123,
			"count":438,
			"type":"SCALAR",
			"min":[0
			],
			"max":[245
			]
		},
		{
			"bufferView":3,
			"componentType":5126,
			"count":246,
			"type":"VEC3",
			"min":[-18.8600006,-0.0400000215,-38.9500008
			],
			"max":[6.14000034,2.21911359,11.0500002
			]
		},
		{
			"bufferView":4,
			"componentType":5126,
			"count":246,
			"type":"VEC4",
			"min":[-1,-0.0520827696,0,1
			],
			"max":[1.08614644e-41,0.979675472,6.37070002e-07,1
			]
		},
		{
			"bufferView":5,
			"componentType":5126,
			"count":246,
			"type":"VEC2",
			"min":[-1,-0.000615358353
			],
			"max":[0,1
			]
		},
		{
			"bufferView":6,
			"componentType":5126,
			"count":246,
			"type":"VEC3",
			"min":[-1,-1,-1
			],
			"max":[1,1,1
			]
		},
		{
			"bufferView":7,
			"componentType":5123,
			"count":786,
			"type":"SCALAR",
			"min":[0
			],
			"max":[189
			]
		},
		{
			"bufferView":8,
			"componentType":5126,
			"count":190,
			"type":"VEC3",
			"min":[-18.8600006,-0.0400000215,-38.9500008
			],
			"max":[6.14000034,2.21911359,11.0500002
			]
		},
		{
			"bufferView":9,
			"componentType":5126,
			"count":190,
			"type":"VEC4",
			"min":[-1,-0.0520827696,-1.61022473e-18,1
			],
			"max":[1.08614644e-41,0.979675472,6.37070002e-07,1
			]
		},
		{
			"bufferView":10,
			"componentType":5126,
			"count":190,
			"type":"VEC2",
			"min":[-1,-0.000615358353
			],
			"max":[0,0.768615425
			]
		},
		{
			"bufferView":11,
			"componentType":5126,
			"count":190,
			"type":"VEC3",
			"min":[-1,-0.999999762,-5.95474381e-09
			],
			"max":[0.979675531,1,5.9547447e-09
			]
		}
	],
	"buffers":[
		{
			"uri":"flat_coping_natural_data.bin",
			"byteLength":25548,
			"name":"main_buffer"
		}
	],
	"bufferViews":[
		{
			"buffer":0,
			"byteLength":972,
			"target":34963
		},
		{
			"buffer":0,
			"byteOffset":972,
			"byteLength":1200,
			"target":34962
		},
		{
			"buffer":0,
			"byteOffset":2172,
			"byteLength":876,
			"target":34963
		},
		{
			"buffer":0,
			"byteOffset":3048,
			"byteLength":2952,
			"target":34962
		},
		{
			"buffer":0,
			"byteOffset":6000,
			"byteLength":3936,
			"target":34962
		},
		{
			"buffer":0,
			"byteOffset":9936,
			"byteLength":1968,
			"target":34962
		},
		{
			"buffer":0,
			"byteOffset":11904,
			"byteLength":2952,
			"target":34962
		},
		{
			"buffer":0,
			"byteOffset":14856,
			"byteLength":1572,
			"target":34963
		},
		{
			"buffer":0,
			"byteOffset":16428,
			"byteLength":2280,
			"target":34962
		},
		{
			"buffer":0,
			"byteOffset":18708,
			"byteLength":3040,
			"target":34962
		},
		{
			"buffer":0,
			"byteOffset":21748,
			"byteLength":1520,
			"target":34962
		},
		{
			"buffer":0,
			"byteOffset":23268,
			"byteLength":2280,
			"target":34962
		}
	],
	"cameras":[
		{
			"name":"olmpicTileCam",
			"type":"perspective",
			"perspective":{
				"aspectRatio":1,
				"yfov":0.785398901,
				"zfar":10000,
				"znear":0.00100000005
			}
		},
		{
			"name":"mosaicTileCam",
			"type":"perspective",
			"perspective":{
				"aspectRatio":1,
				"yfov":0.785398901,
				"zfar":10000,
				"znear":0.00100000005
			}
		},
		{
			"name":"renderTileCam",
			"type":"perspective",
			"perspective":{
				"aspectRatio":1,
				"yfov":0.582913637,
				"zfar":10000,
				"znear":0.00100000005
			}
		},
		{
			"name":"render2TileCam",
			"type":"perspective",
			"perspective":{
				"aspectRatio":1,
				"yfov":0.582913637,
				"zfar":10000,
				"znear":0.00100000005
			}
		}
	],
	"nodes":[
		{
			"name":"handle_flat",
			"mesh":1
		},
		{
			"matrix":[0.550288439,-3.26532501e-07,-0.834974647,0,-0.569239557,0.731590033,-0.375156522,0,0.610859215,0.681744874,0.402585328,0,23.9650421,23.741766,16.6988335,1
			],
			"name":"olmpicTileCam",
			"camera":0
		},
		{
			"matrix":[0.0846966505,0,-0.996406794,0,0,1,0,0,0.996406794,0,0.0846966505,0,0,0,0,1
			],
			"name":"rslightdomeOlympicTile"
		},
		{
			"name":"ground",
			"mesh":0
		},
		{
			"name":"dimensions"
		},
		{
			"name":"mosaicTile"
		},
		{
			"matrix":[-0.707106769,5.84473128e-07,-0.707106769,0,-0.454518855,0.766044796,0.45451948,0,0.541675746,0.642787158,-0.54167521,0,35.0255585,34.250206,-31.8606491,1
			],
			"name":"mosaicTileCam",
			"camera":1
		},
		{
			"matrix":[-0.666482508,0,-0.745520651,0,0,1,0,0,0.745520651,0,-0.666482508,0,0,0,0,1
			],
			"name":"rslightdomeMosaicTile"
		},
		{
			"matrix":[0.692292988,-3.14975523e-06,-0.721616507,0,-0.492460907,0.730938315,-0.472452551,0,0.527458668,0.6824435,0.506021976,0,47.662693,65.5283127,40.6030922,1
			],
			"name":"renderTileCam",
			"camera":2
		},
		{
			"matrix":[0.594528496,0,-0.804074526,0,0,1,0,0,0.804074526,0,0.594528496,0,0,0,0,1
			],
			"name":"rslightCoping"
		},
		{
			"matrix":[1,0,0,0,0,0.891006529,-0.453990489,0,0,0.453990489,0.891006529,0,-6.14108324,28.3390808,52.2683792,1
			],
			"name":"render2TileCam",
			"camera":3
		},
		{
			"name":"fullbodytext"
		}
	],
	"meshes":[
		{
			"primitives":[
				{
					"attributes":{
						"POSITION":1
					},
					"indices":0
				}
			],
			"name":"material1"
		},
		{
			"primitives":[
				{
					"attributes":{
						"POSITION":3,
						"TANGENT":4,
						"NORMAL":6,
						"TEXCOORD_0":5
					},
					"indices":2
				},
				{
					"attributes":{
						"POSITION":8,
						"TANGENT":9,
						"NORMAL":11,
						"TEXCOORD_0":10
					},
					"indices":7
				}
			],
			"name":"merge1"
		}
	],
	"scenes":[
		{
			"nodes":[0
			]
		}
	],
	"scene":0
}
